<svg version="1.1" id="Layer_1" xmlns="http://www.w3.org/2000/svg" xmlns:xlink="http://www.w3.org/1999/xlink" x="0px" y="0px"
	 width="100%" viewBox="0 0 500 500" enable-background="new 0 0 500 500" xml:space="preserve">
<path fill="#000000" opacity="1.000000" stroke="none" 
	d="
M501.000000,199.000000 
	C501.000000,299.999969 501.000000,400.499969 501.000000,500.999939 
	C334.333405,500.999969 167.666794,500.999969 1.000143,501.000000 
	C1.000096,334.333435 1.000096,167.666870 1.000048,1.000233 
	C167.666519,1.000155 334.333038,1.000155 500.999786,1.000078 
	C501.000000,66.833336 501.000000,132.666672 501.000000,199.000000 
M356.999298,192.500000 
	C356.999298,149.112839 356.999298,105.725693 356.999298,62.416328 
	C348.196930,62.416328 340.296783,62.416328 331.842529,62.416328 
	C331.842529,94.239876 331.842529,125.652107 331.842529,157.064331 
	C330.796814,155.670517 330.364349,154.270309 329.981934,152.856583 
	C322.940430,126.823982 315.943970,100.779068 308.828613,74.766670 
	C307.675110,70.549789 307.156464,64.812782 304.249207,62.790474 
	C301.174408,60.651646 295.596283,62.052349 291.110748,62.014874 
	C284.524994,61.959850 277.938446,62.000694 271.368805,62.000694 
	C271.368805,119.739876 271.368805,176.619370 271.368805,233.664368 
	C279.638214,233.664368 287.536194,233.664368 295.968445,233.664368 
	C295.968445,194.845428 295.968445,156.357117 295.968445,117.868813 
	C296.294983,117.829590 296.621552,117.790367 296.948090,117.751152 
	C307.413788,156.397690 317.879456,195.044220 328.339020,233.668167 
	C337.932648,233.668167 347.180878,233.668167 356.286285,233.668167 
	C356.571014,233.050827 356.821320,232.760269 356.822937,232.468323 
	C356.895447,219.478958 356.946075,206.489471 356.999298,192.500000 
M70.498177,234.000137 
	C74.995636,233.999023 79.539154,234.414139 83.982338,233.922485 
	C100.499100,232.094818 113.545532,225.730774 116.813286,207.298477 
	C118.760284,196.316132 119.284668,184.849777 118.598442,173.715042 
	C118.151901,166.469482 115.175209,159.020966 111.809494,152.442322 
	C109.621689,148.166000 104.695229,145.290802 100.855644,141.655228 
	C108.666527,138.163040 113.099358,131.222427 114.241035,123.034775 
	C115.627052,113.094757 116.280731,102.855453 115.500412,92.882629 
	C115.012520,86.647316 112.234680,80.067062 108.819199,74.701599 
	C102.962494,65.501205 93.003860,62.500061 82.697136,62.130978 
	C68.389938,61.618633 54.050621,61.991882 39.725117,62.018967 
	C38.289082,62.021683 36.853470,62.251865 35.331047,62.383999 
	C35.331047,119.664131 35.331047,176.543045 35.331047,234.000137 
	C46.935089,234.000137 58.217014,234.000137 70.498177,234.000137 
M17.602221,260.000824 
	C15.187464,260.000824 12.772707,260.000824 10.369915,260.000824 
	C10.369915,317.747437 10.369915,374.623901 10.369915,431.666229 
	C19.638941,431.666229 28.536325,431.666229 38.180298,431.666229 
	C38.180298,407.325287 38.180298,383.306610 38.180298,359.428894 
	C48.501629,359.428894 58.068066,359.428894 68.195396,359.428894 
	C68.195396,383.749268 68.195396,407.645844 68.195396,431.649841 
	C77.670212,431.649841 86.567902,431.649841 95.537560,431.649841 
	C95.537560,374.304169 95.537560,317.309906 95.537560,260.427917 
	C86.171165,260.427917 77.270935,260.427917 67.810837,260.427917 
	C67.810837,285.079041 67.810837,309.307709 67.810837,333.653656 
	C57.668743,333.653656 48.104702,333.653656 37.792122,333.653656 
	C37.792122,308.969238 37.792122,284.620422 37.792122,260.000793 
	C30.885525,260.000793 24.730507,260.000793 17.602221,260.000824 
M400.998840,105.608879 
	C402.057861,100.522270 402.245056,95.020134 404.416687,90.463844 
	C406.667877,85.740730 413.658295,84.483337 419.418671,86.238655 
	C424.753662,87.864349 427.857452,92.032486 427.964569,98.217934 
	C428.093292,105.650124 427.994995,113.086250 427.994995,120.649757 
	C437.335022,120.649757 445.900452,120.649757 454.766266,120.649757 
	C455.347687,108.398552 455.538910,96.487679 452.005066,84.959892 
	C447.889374,71.534187 439.172638,62.625740 424.779724,61.113499 
	C417.145966,60.311436 409.251831,60.241722 401.657745,61.235706 
	C391.430298,62.574371 384.087524,68.702438 378.977997,77.805634 
	C374.071838,86.546532 373.261169,96.208443 373.205750,105.614738 
	C373.016510,137.725037 373.288116,169.851395 374.208466,201.947983 
	C374.551697,213.917511 379.818970,224.408279 390.712463,230.821243 
	C401.080597,236.924896 412.654785,237.391159 423.954285,235.229233 
	C430.319794,234.011337 436.969727,231.054504 442.059296,227.057358 
	C453.047821,218.427521 454.426910,205.250275 454.861816,192.479233 
	C455.423035,175.999634 455.007568,159.486465 454.984619,142.987793 
	C454.982422,141.406708 454.781799,139.825897 454.687164,138.447418 
	C441.472229,138.447418 428.904785,138.447418 416.412354,138.447418 
	C416.412354,146.805283 416.412354,154.710983 416.412354,162.764145 
	C420.396973,162.942429 423.983490,163.102905 427.961365,163.280899 
	C427.961365,175.560104 428.268646,187.371933 427.844299,199.157440 
	C427.596008,206.052582 422.138580,210.691483 415.438324,210.987946 
	C408.527710,211.293701 403.086182,206.896667 402.005005,199.900513 
	C401.477753,196.488510 401.051208,193.019791 401.041656,189.575455 
	C400.964996,161.911163 400.998779,134.246582 400.998840,105.608879 
M191.144547,363.189545 
	C189.257675,350.827057 187.405716,338.459076 185.475174,326.103424 
	C183.012558,310.342468 180.517685,294.586395 177.972290,278.838623 
	C176.961197,272.583344 175.777420,266.355957 174.729523,260.439117 
	C160.745468,260.439117 147.519318,260.439117 134.376663,260.439117 
	C125.217171,317.685364 116.127846,374.493073 106.981522,431.656982 
	C115.797134,431.656982 124.190979,431.656982 132.696945,431.656982 
	C134.269562,421.438110 135.793335,411.536591 137.357162,401.374878 
	C148.188217,401.374878 158.895416,401.374878 169.491409,401.374878 
	C171.121643,411.769073 172.691696,421.779602 174.234726,431.617737 
	C183.837051,431.617737 192.753174,431.617737 202.330551,431.617737 
	C198.669174,408.762329 195.083527,386.379608 191.144547,363.189545 
M241.999146,388.500275 
	C241.999146,381.753967 241.999146,375.007660 241.999146,368.548309 
	C250.045776,367.988953 257.162903,367.693909 264.233398,366.953766 
	C273.717712,365.960938 281.440765,361.764313 287.092987,353.827454 
	C293.465637,344.878967 294.506561,334.488495 294.847198,324.148224 
	C295.190552,313.726318 294.884705,303.207825 293.832428,292.836273 
	C292.782776,282.490417 289.093292,272.975403 280.062195,266.581848 
	C273.658844,262.048615 266.271057,260.250427 258.633759,260.083588 
	C245.312378,259.792664 231.979996,259.991119 218.652313,260.019806 
	C217.221680,260.022888 215.791534,260.260468 214.363495,260.389038 
	C214.363495,317.720947 214.363495,374.605011 214.363495,431.669495 
	C223.627548,431.669495 232.526016,431.669495 241.999146,431.669495 
	C241.999146,417.397644 241.999146,403.448914 241.999146,388.500275 
M308.000793,356.500000 
	C308.000793,381.553986 308.000793,406.607971 308.000793,431.595093 
	C317.792877,431.595093 326.689911,431.595093 336.141357,431.595093 
	C336.141357,410.304016 336.141357,389.412140 336.141357,368.561340 
	C343.437500,368.024353 350.179474,367.641083 356.898468,367.012604 
	C377.527405,365.083160 387.060181,350.110291 387.901123,331.288940 
	C388.428284,319.490997 388.673431,307.596802 387.741058,295.849274 
	C387.198395,289.011780 385.133575,281.813782 381.894745,275.775024 
	C375.766815,264.349640 364.541779,260.486877 352.277405,260.094788 
	C339.303680,259.680054 326.306335,259.991486 313.319397,260.014862 
	C311.710907,260.017761 310.102753,260.199371 308.000793,260.328491 
	C308.000793,292.308929 308.000793,323.904449 308.000793,356.500000 
M158.500000,234.000092 
	C175.239868,234.000092 191.979752,234.000092 208.549866,234.000092 
	C208.549866,225.147339 208.549866,217.242935 208.549866,208.762970 
	C192.867523,208.762970 177.627701,208.762970 162.386124,208.762970 
	C162.386124,192.262222 162.386124,176.360992 162.386124,159.875916 
	C174.671219,159.875916 186.582809,159.875916 198.672119,159.875916 
	C198.672119,151.050140 198.672119,142.816132 198.672119,133.818008 
	C186.329910,133.818008 174.293396,133.818008 162.442902,133.818008 
	C162.442902,117.811615 162.442902,102.575790 162.442902,86.760223 
	C178.120926,86.760223 193.360992,86.760223 208.612000,86.760223 
	C208.612000,78.262779 208.612000,70.361115 208.612000,62.357788 
	C183.657135,62.357788 159.090759,62.357788 134.325241,62.357788 
	C134.325241,119.613625 134.325241,176.512100 134.325241,234.000092 
	C142.258987,234.000092 149.879517,234.000092 158.500000,234.000092 
M489.035187,260.479065 
	C482.232239,260.319672 475.398743,260.497894 468.636749,259.885773 
	C463.888763,259.456024 462.222229,261.637115 461.209991,265.653046 
	C456.867523,282.881500 452.432251,300.086761 447.961975,317.282593 
	C446.469971,323.021973 444.772552,328.707916 443.169037,334.418304 
	C442.854004,334.379150 442.538971,334.339966 442.223938,334.300812 
	C435.700256,309.573364 429.176605,284.845917 422.720276,260.373688 
	C412.819305,260.373688 403.572723,260.373688 393.971436,260.373688 
	C394.213531,261.902405 394.264801,263.047852 394.582611,264.113831 
	C404.219025,296.436737 413.813171,328.772583 423.580963,361.055847 
	C426.618805,371.096100 428.602570,381.130432 428.118835,391.747803 
	C427.596130,403.220978 427.989990,414.736481 428.012360,426.233429 
	C428.015808,428.004150 428.171326,429.774628 428.261414,431.647888 
	C437.656036,431.647888 446.554260,431.647888 455.990204,431.647888 
	C455.990204,429.508728 455.990173,427.716797 455.990204,425.924896 
	C455.990601,409.762421 455.982452,393.599915 456.004303,377.437469 
	C456.006531,375.781158 455.877594,374.033752 456.333679,372.482758 
	C462.645782,351.018097 469.084778,329.590790 475.419312,308.132660 
	C480.027649,292.522125 484.527466,276.879547 489.035187,260.479065 
M251.999207,186.500000 
	C251.999207,145.109329 251.999207,103.718651 251.999207,62.420731 
	C242.188217,62.420731 233.287537,62.420731 224.365204,62.420731 
	C224.365204,119.724838 224.365204,176.607849 224.365204,233.668427 
	C233.629868,233.668427 242.528030,233.668427 251.999207,233.668427 
	C251.999207,218.062424 251.999207,202.781219 251.999207,186.500000 
z"/>
<path fill="#714D66" opacity="1.000000" stroke="none" 
	d="
M356.999329,193.000000 
	C356.946075,206.489471 356.895447,219.478958 356.822937,232.468323 
	C356.821320,232.760269 356.571014,233.050827 356.286285,233.668167 
	C347.180878,233.668167 337.932648,233.668167 328.339020,233.668167 
	C317.879456,195.044220 307.413788,156.397690 296.948090,117.751152 
	C296.621552,117.790367 296.294983,117.829590 295.968445,117.868813 
	C295.968445,156.357117 295.968445,194.845428 295.968445,233.664368 
	C287.536194,233.664368 279.638214,233.664368 271.368805,233.664368 
	C271.368805,176.619370 271.368805,119.739876 271.368805,62.000694 
	C277.938446,62.000694 284.524994,61.959850 291.110748,62.014874 
	C295.596283,62.052349 301.174408,60.651646 304.249207,62.790474 
	C307.156464,64.812782 307.675110,70.549789 308.828613,74.766670 
	C315.943970,100.779068 322.940430,126.823982 329.981934,152.856583 
	C330.364349,154.270309 330.796814,155.670517 331.842529,157.064331 
	C331.842529,125.652107 331.842529,94.239876 331.842529,62.416328 
	C340.296783,62.416328 348.196930,62.416328 356.999298,62.416328 
	C356.999298,105.725693 356.999298,149.112839 356.999329,193.000000 
z"/>
<path fill="#714D66" opacity="1.000000" stroke="none" 
	d="
M69.998558,234.000137 
	C58.217014,234.000137 46.935089,234.000137 35.331047,234.000137 
	C35.331047,176.543045 35.331047,119.664131 35.331047,62.383999 
	C36.853470,62.251865 38.289082,62.021683 39.725117,62.018967 
	C54.050621,61.991882 68.389938,61.618633 82.697136,62.130978 
	C93.003860,62.500061 102.962494,65.501205 108.819199,74.701599 
	C112.234680,80.067062 115.012520,86.647316 115.500412,92.882629 
	C116.280731,102.855453 115.627052,113.094757 114.241035,123.034775 
	C113.099358,131.222427 108.666527,138.163040 100.855644,141.655228 
	C104.695229,145.290802 109.621689,148.166000 111.809494,152.442322 
	C115.175209,159.020966 118.151901,166.469482 118.598442,173.715042 
	C119.284668,184.849777 118.760284,196.316132 116.813286,207.298477 
	C113.545532,225.730774 100.499100,232.094818 83.982338,233.922485 
	C79.539154,234.414139 74.995636,233.999023 69.998558,234.000137 
M88.589195,203.822357 
	C89.010941,202.926453 89.781746,202.037994 89.800987,201.133514 
	C90.017921,190.938507 90.294510,180.739059 90.179276,170.545059 
	C90.120316,165.329391 88.152664,160.987442 82.703064,158.862991 
	C76.325035,156.376587 69.887337,156.898132 63.358070,157.271515 
	C63.358070,174.733734 63.358070,191.607498 63.358070,209.000214 
	C68.156731,209.000214 72.716042,209.595856 77.029602,208.821899 
	C80.850060,208.136414 84.397179,205.927597 88.589195,203.822357 
M65.795715,87.022751 
	C64.867340,88.219200 63.198254,89.379028 63.136978,90.618355 
	C62.849648,96.429169 63.003166,102.261848 63.002056,108.086723 
	C63.000572,115.859009 63.001686,123.631287 63.001686,131.893829 
	C67.386971,131.893829 71.240349,132.373260 74.929466,131.798462 
	C83.826027,130.412338 87.956841,125.175156 87.998589,116.076233 
	C88.010803,113.413483 87.875473,110.743782 88.020905,108.088943 
	C88.965637,90.843033 84.209297,85.981964 65.795715,87.022751 
z"/>
<path fill="#714D66" opacity="1.000000" stroke="none" 
	d="
M18.088856,260.000793 
	C24.730507,260.000793 30.885525,260.000793 37.792122,260.000793 
	C37.792122,284.620422 37.792122,308.969238 37.792122,333.653656 
	C48.104702,333.653656 57.668743,333.653656 67.810837,333.653656 
	C67.810837,309.307709 67.810837,285.079041 67.810837,260.427917 
	C77.270935,260.427917 86.171165,260.427917 95.537560,260.427917 
	C95.537560,317.309906 95.537560,374.304169 95.537560,431.649841 
	C86.567902,431.649841 77.670212,431.649841 68.195396,431.649841 
	C68.195396,407.645844 68.195396,383.749268 68.195396,359.428894 
	C58.068066,359.428894 48.501629,359.428894 38.180298,359.428894 
	C38.180298,383.306610 38.180298,407.325287 38.180298,431.666229 
	C28.536325,431.666229 19.638941,431.666229 10.369915,431.666229 
	C10.369915,374.623901 10.369915,317.747437 10.369915,260.000824 
	C12.772707,260.000824 15.187464,260.000824 18.088856,260.000793 
z"/>
<path fill="#714D66" opacity="1.000000" stroke="none" 
	d="
M400.998810,106.095482 
	C400.998779,134.246582 400.964996,161.911163 401.041656,189.575455 
	C401.051208,193.019791 401.477753,196.488510 402.005005,199.900513 
	C403.086182,206.896667 408.527710,211.293701 415.438324,210.987946 
	C422.138580,210.691483 427.596008,206.052582 427.844299,199.157440 
	C428.268646,187.371933 427.961365,175.560104 427.961365,163.280899 
	C423.983490,163.102905 420.396973,162.942429 416.412354,162.764145 
	C416.412354,154.710983 416.412354,146.805283 416.412354,138.447418 
	C428.904785,138.447418 441.472229,138.447418 454.687164,138.447418 
	C454.781799,139.825897 454.982422,141.406708 454.984619,142.987793 
	C455.007568,159.486465 455.423035,175.999634 454.861816,192.479233 
	C454.426910,205.250275 453.047821,218.427521 442.059296,227.057358 
	C436.969727,231.054504 430.319794,234.011337 423.954285,235.229233 
	C412.654785,237.391159 401.080597,236.924896 390.712463,230.821243 
	C379.818970,224.408279 374.551697,213.917511 374.208466,201.947983 
	C373.288116,169.851395 373.016510,137.725037 373.205750,105.614738 
	C373.261169,96.208443 374.071838,86.546532 378.977997,77.805634 
	C384.087524,68.702438 391.430298,62.574371 401.657745,61.235706 
	C409.251831,60.241722 417.145966,60.311436 424.779724,61.113499 
	C439.172638,62.625740 447.889374,71.534187 452.005066,84.959892 
	C455.538910,96.487679 455.347687,108.398552 454.766266,120.649757 
	C445.900452,120.649757 437.335022,120.649757 427.994995,120.649757 
	C427.994995,113.086250 428.093292,105.650124 427.964569,98.217934 
	C427.857452,92.032486 424.753662,87.864349 419.418671,86.238655 
	C413.658295,84.483337 406.667877,85.740730 404.416687,90.463844 
	C402.245056,95.020134 402.057861,100.522270 400.998810,106.095482 
z"/>
<path fill="#714D66" opacity="1.000000" stroke="none" 
	d="
M191.321213,363.593201 
	C195.083527,386.379608 198.669174,408.762329 202.330551,431.617737 
	C192.753174,431.617737 183.837051,431.617737 174.234726,431.617737 
	C172.691696,421.779602 171.121643,411.769073 169.491409,401.374878 
	C158.895416,401.374878 148.188217,401.374878 137.357162,401.374878 
	C135.793335,411.536591 134.269562,421.438110 132.696945,431.656982 
	C124.190979,431.656982 115.797134,431.656982 106.981522,431.656982 
	C116.127846,374.493073 125.217171,317.685364 134.376663,260.439117 
	C147.519318,260.439117 160.745468,260.439117 174.729523,260.439117 
	C175.777420,266.355957 176.961197,272.583344 177.972290,278.838623 
	C180.517685,294.586395 183.012558,310.342468 185.475174,326.103424 
	C187.405716,338.459076 189.257675,350.827057 191.321213,363.593201 
M142.010132,368.587921 
	C141.714264,371.167999 141.418411,373.748047 141.082108,376.680786 
	C149.332901,376.680786 157.245377,376.680786 165.643982,376.680786 
	C161.636932,349.788544 157.674347,323.194672 153.711746,296.600769 
	C150.994064,309.871948 149.030136,323.191437 146.987137,336.498840 
	C145.388840,346.909698 143.692505,357.305481 142.010132,368.587921 
z"/>
<path fill="#714D66" opacity="1.000000" stroke="none" 
	d="
M241.999146,389.000244 
	C241.999146,403.448914 241.999146,417.397644 241.999146,431.669495 
	C232.526016,431.669495 223.627548,431.669495 214.363495,431.669495 
	C214.363495,374.605011 214.363495,317.720947 214.363495,260.389038 
	C215.791534,260.260468 217.221680,260.022888 218.652313,260.019806 
	C231.979996,259.991119 245.312378,259.792664 258.633759,260.083588 
	C266.271057,260.250427 273.658844,262.048615 280.062195,266.581848 
	C289.093292,272.975403 292.782776,282.490417 293.832428,292.836273 
	C294.884705,303.207825 295.190552,313.726318 294.847198,324.148224 
	C294.506561,334.488495 293.465637,344.878967 287.092987,353.827454 
	C281.440765,361.764313 273.717712,365.960938 264.233398,366.953766 
	C257.162903,367.693909 250.045776,367.988953 241.999146,368.548309 
	C241.999146,375.007660 241.999146,381.753967 241.999146,389.000244 
M241.999146,311.500000 
	C241.999146,321.896606 241.999146,332.293182 241.999146,342.987061 
	C246.034256,342.987061 249.191696,343.146393 252.328094,342.957092 
	C261.636627,342.395233 265.399170,340.109985 266.254333,331.054443 
	C267.341095,319.547089 266.893433,307.859222 266.545715,296.266022 
	C266.352478,289.822479 261.995209,286.046326 255.818756,285.201843 
	C251.466904,284.606812 246.968109,285.086761 241.999146,285.086761 
	C241.999146,293.947998 241.999146,302.223999 241.999146,311.500000 
z"/>
<path fill="#714D66" opacity="1.000000" stroke="none" 
	d="
M308.000793,356.000000 
	C308.000793,323.904449 308.000793,292.308929 308.000793,260.328491 
	C310.102753,260.199371 311.710907,260.017761 313.319397,260.014862 
	C326.306335,259.991486 339.303680,259.680054 352.277405,260.094788 
	C364.541779,260.486877 375.766815,264.349640 381.894745,275.775024 
	C385.133575,281.813782 387.198395,289.011780 387.741058,295.849274 
	C388.673431,307.596802 388.428284,319.490997 387.901123,331.288940 
	C387.060181,350.110291 377.527405,365.083160 356.898468,367.012604 
	C350.179474,367.641083 343.437500,368.024353 336.141357,368.561340 
	C336.141357,389.412140 336.141357,410.304016 336.141357,431.595093 
	C326.689911,431.595093 317.792877,431.595093 308.000793,431.595093 
	C308.000793,406.607971 308.000793,381.553986 308.000793,356.000000 
M350.290344,342.008545 
	C357.732635,340.414764 359.300385,339.315887 359.881470,329.565125 
	C360.577209,317.889557 360.285889,306.122650 359.760895,294.424988 
	C359.584229,290.488800 357.046295,286.709869 352.448364,286.070953 
	C347.159149,285.335938 341.795593,285.136078 336.364624,284.695740 
	C336.364624,304.720428 336.364624,323.613281 336.364624,343.354340 
	C341.000885,342.892426 345.217346,342.472382 350.290344,342.008545 
z"/>
<path fill="#714D66" opacity="1.000000" stroke="none" 
	d="
M158.000015,234.000092 
	C149.879517,234.000092 142.258987,234.000092 134.325241,234.000092 
	C134.325241,176.512100 134.325241,119.613625 134.325241,62.357788 
	C159.090759,62.357788 183.657135,62.357788 208.612000,62.357788 
	C208.612000,70.361115 208.612000,78.262779 208.612000,86.760223 
	C193.360992,86.760223 178.120926,86.760223 162.442902,86.760223 
	C162.442902,102.575790 162.442902,117.811615 162.442902,133.818008 
	C174.293396,133.818008 186.329910,133.818008 198.672119,133.818008 
	C198.672119,142.816132 198.672119,151.050140 198.672119,159.875916 
	C186.582809,159.875916 174.671219,159.875916 162.386124,159.875916 
	C162.386124,176.360992 162.386124,192.262222 162.386124,208.762970 
	C177.627701,208.762970 192.867523,208.762970 208.549866,208.762970 
	C208.549866,217.242935 208.549866,225.147339 208.549866,234.000092 
	C191.979752,234.000092 175.239868,234.000092 158.000015,234.000092 
z"/>
<path fill="#714D66" opacity="1.000000" stroke="none" 
	d="
M489.055420,260.865173 
	C484.527466,276.879547 480.027649,292.522125 475.419312,308.132660 
	C469.084778,329.590790 462.645782,351.018097 456.333679,372.482758 
	C455.877594,374.033752 456.006531,375.781158 456.004303,377.437469 
	C455.982452,393.599915 455.990601,409.762421 455.990204,425.924896 
	C455.990173,427.716797 455.990204,429.508728 455.990204,431.647888 
	C446.554260,431.647888 437.656036,431.647888 428.261414,431.647888 
	C428.171326,429.774628 428.015808,428.004150 428.012360,426.233429 
	C427.989990,414.736481 427.596130,403.220978 428.118835,391.747803 
	C428.602570,381.130432 426.618805,371.096100 423.580963,361.055847 
	C413.813171,328.772583 404.219025,296.436737 394.582611,264.113831 
	C394.264801,263.047852 394.213531,261.902405 393.971436,260.373688 
	C403.572723,260.373688 412.819305,260.373688 422.720276,260.373688 
	C429.176605,284.845917 435.700256,309.573364 442.223938,334.300812 
	C442.538971,334.339966 442.854004,334.379150 443.169037,334.418304 
	C444.772552,328.707916 446.469971,323.021973 447.961975,317.282593 
	C452.432251,300.086761 456.867523,282.881500 461.209991,265.653046 
	C462.222229,261.637115 463.888763,259.456024 468.636749,259.885773 
	C475.398743,260.497894 482.232239,260.319672 489.055420,260.865173 
z"/>
<path fill="#714D66" opacity="1.000000" stroke="none" 
	d="
M251.999207,187.000000 
	C251.999207,202.781219 251.999207,218.062424 251.999207,233.668427 
	C242.528030,233.668427 233.629868,233.668427 224.365204,233.668427 
	C224.365204,176.607849 224.365204,119.724838 224.365204,62.420731 
	C233.287537,62.420731 242.188217,62.420731 251.999207,62.420731 
	C251.999207,103.718651 251.999207,145.109329 251.999207,187.000000 
z"/>
<path fill="#000000" opacity="1.000000" stroke="none" 
	d="
M88.327087,204.106812 
	C84.397179,205.927597 80.850060,208.136414 77.029602,208.821899 
	C72.716042,209.595856 68.156731,209.000214 63.358070,209.000214 
	C63.358070,191.607498 63.358070,174.733734 63.358070,157.271515 
	C69.887337,156.898132 76.325035,156.376587 82.703064,158.862991 
	C88.152664,160.987442 90.120316,165.329391 90.179276,170.545059 
	C90.294510,180.739059 90.017921,190.938507 89.800987,201.133514 
	C89.781746,202.037994 89.010941,202.926453 88.327087,204.106812 
z"/>
<path fill="#000000" opacity="1.000000" stroke="none" 
	d="
M66.265625,87.014282 
	C84.209297,85.981964 88.965637,90.843033 88.020905,108.088943 
	C87.875473,110.743782 88.010803,113.413483 87.998589,116.076233 
	C87.956841,125.175156 83.826027,130.412338 74.929466,131.798462 
	C71.240349,132.373260 67.386971,131.893829 63.001686,131.893829 
	C63.001686,123.631287 63.000572,115.859009 63.002056,108.086723 
	C63.003166,102.261848 62.849648,96.429169 63.136978,90.618355 
	C63.198254,89.379028 64.867340,88.219200 66.265625,87.014282 
z"/>
<path fill="#000000" opacity="1.000000" stroke="none" 
	d="
M142.024933,368.147949 
	C143.692505,357.305481 145.388840,346.909698 146.987137,336.498840 
	C149.030136,323.191437 150.994064,309.871948 153.711746,296.600769 
	C157.674347,323.194672 161.636932,349.788544 165.643982,376.680786 
	C157.245377,376.680786 149.332901,376.680786 141.082108,376.680786 
	C141.418411,373.748047 141.714264,371.167999 142.024933,368.147949 
z"/>
<path fill="#000000" opacity="1.000000" stroke="none" 
	d="
M241.999146,311.000000 
	C241.999146,302.223999 241.999146,293.947998 241.999146,285.086761 
	C246.968109,285.086761 251.466904,284.606812 255.818756,285.201843 
	C261.995209,286.046326 266.352478,289.822479 266.545715,296.266022 
	C266.893433,307.859222 267.341095,319.547089 266.254333,331.054443 
	C265.399170,340.109985 261.636627,342.395233 252.328094,342.957092 
	C249.191696,343.146393 246.034256,342.987061 241.999146,342.987061 
	C241.999146,332.293182 241.999146,321.896606 241.999146,311.000000 
z"/>
<path fill="#000000" opacity="1.000000" stroke="none" 
	d="
M349.862061,342.030426 
	C345.217346,342.472382 341.000885,342.892426 336.364624,343.354340 
	C336.364624,323.613281 336.364624,304.720428 336.364624,284.695740 
	C341.795593,285.136078 347.159149,285.335938 352.448364,286.070953 
	C357.046295,286.709869 359.584229,290.488800 359.760895,294.424988 
	C360.285889,306.122650 360.577209,317.889557 359.881470,329.565125 
	C359.300385,339.315887 357.732635,340.414764 349.862061,342.030426 
z"/>
</svg>